<?xml version="1.0" encoding="UTF-8"?>
<svg id="Layer_1" xmlns="http://www.w3.org/2000/svg" version="1.1" viewBox="0 0 800 666.67">
  <!-- Generator: Adobe Illustrator 30.1.0, SVG Export Plug-In . SVG Version: 2.1.1 Build 136)  -->
  <path d="M66.67,0C29.9,0,0,29.9,0,66.67v133.33h66.67V66.67h666.67v533.33h-266.67v66.67h266.67c36.77,0,66.67-29.9,66.67-66.67V66.67c0-36.77-29.9-66.67-66.67-66.67H66.67ZM0,266.67v66.67c172.31,0,314.54,131.41,331.64,299.28,1.14,11.19,1.69,22.56,1.69,34.05h66.67c0-220.57-179.43-400-400-400ZM0,400v66.67c110.3,0,200,89.7,200,200h66.67c0-147.03-119.63-266.67-266.67-266.67ZM0,533.33v133.33h133.33c0-73.63-59.7-133.33-133.33-133.33Z"/>
</svg>